<svg width="47" height="53" viewBox="0 0 47 53" fill="none" xmlns="http://www.w3.org/2000/svg">
<path d="M31.7232 1.87524L10.5489 4.47512L8.55206 10.0937L5.90527 10.4187L6.27087 13.3963L8.91766 13.0713L35.3856 9.82147L38.0324 9.49648L37.6667 6.51885L35.02 6.84383L31.7232 1.87524Z" fill="white"/>
<path d="M36.8245 32.4817L36.848 21.732L35.2052 21.9337L12.0229 24.7802L10.3801 24.9819L13.0034 35.4065L14.7832 35.188L35.0448 32.7002L36.8245 32.4817Z" fill="white"/>
<path fill-rule="evenodd" clip-rule="evenodd" d="M9.44593 3.09928L32.4605 0.273438L35.7573 5.24203L38.9728 4.84722L39.704 10.8025L36.8659 11.151L36.7306 20.2352L38.3517 20.0361L38.3216 33.8091L36.5252 34.0297L36.2846 50.1794L17.8088 52.4479L13.6684 36.8362L11.8719 37.0567L8.51078 23.7001L10.1319 23.5011L7.80291 14.7195L4.96486 15.0679L4.23364 9.11265L7.44911 8.71784L9.44593 3.09928ZM10.8087 14.3504L13.1377 23.132L33.7248 20.6042L33.8601 11.52L10.8087 14.3504ZM35.3443 23.4279L12.2494 26.2636L14.1349 33.7563L35.3274 31.1542L35.3443 23.4279ZM16.6742 36.4671L20.0383 49.1517L33.3239 47.5204L33.5193 34.3988L16.6742 36.4671ZM11.6518 5.85096L9.655 11.4695L34.2826 8.44563L30.9859 3.47703L11.6518 5.85096Z" fill="white"/>
</svg>
