<svg width="50" height="48" viewBox="0 0 50 48" fill="none" xmlns="http://www.w3.org/2000/svg">
<path fill-rule="evenodd" clip-rule="evenodd" d="M3.99001 8.31797C2.58913 8.48997 1.5977 9.80384 1.77558 11.2526L4.99641 37.4841L45.5805 32.501L42.3597 6.26947C42.1818 4.82074 40.902 3.78575 39.5011 3.95776L3.99001 8.31797ZM48.4391 34.8128L2.78199 40.4187L3.10407 43.0419C3.28196 44.4906 4.56179 45.5256 5.96267 45.3536L46.5468 40.3705C47.9476 40.1985 48.9391 38.8846 48.7612 37.4359L48.4391 34.8128ZM9.40518 20.9666L37.3068 17.5407L36.6626 12.2944L8.76102 15.7203L9.40518 20.9666ZM10.3714 28.8361L28.127 26.656L27.4828 21.4096L9.72727 23.5897L10.3714 28.8361Z" fill="white"/>
<path d="M5.96267 45.3536C4.56179 45.5256 3.28196 44.4906 3.10407 43.0419L3.42616 45.6651L5.96267 45.3536Z" fill="white"/>
<path d="M48.7612 37.4359C48.9391 38.8846 47.9476 40.1985 46.5468 40.3705L49.0833 40.0591L48.7612 37.4359Z" fill="white"/>
<path d="M39.5011 3.95776C40.902 3.78575 42.1818 4.82074 42.3597 6.26947L42.0376 3.64631L39.5011 3.95776Z" fill="white"/>
<path d="M1.77558 11.2526C1.5977 9.80384 2.58913 8.48997 3.99001 8.31797L1.4535 8.62941L1.77558 11.2526Z" fill="white"/>
</svg>
