<svg width="22" height="17" viewBox="0 0 22 17" fill="none" xmlns="http://www.w3.org/2000/svg">
<path d="M21.4944 1.45542C21.2037 4.44186 19.9439 11.7 19.3043 15.0456C19.033 16.4632 18.4903 16.9358 17.9864 16.9925C16.8623 17.087 16.0095 16.2742 14.9241 15.5749C13.2186 14.4786 12.2495 13.7981 10.6021 12.7396C8.68335 11.511 9.92375 10.8306 11.0285 9.73428C11.3192 9.45076 16.2808 5.04671 16.3777 4.64977C16.3912 4.58965 16.3894 4.52724 16.3725 4.46795C16.3556 4.40866 16.3242 4.35428 16.2808 4.30955C16.1645 4.21504 16.0095 4.25284 15.8738 4.27174C15.6994 4.30955 12.986 6.06739 7.6949 9.54527C6.91965 10.0556 6.22192 10.3202 5.60172 10.3013C4.90399 10.2824 3.58606 9.9233 2.59761 9.60197C1.37659 9.22394 0.426904 9.01602 0.50443 8.35447C0.543192 8.01424 1.02773 7.67402 1.93865 7.31489C7.598 4.91439 11.358 3.32667 13.238 2.57061C18.626 0.378032 19.7307 0 20.4672 0C20.6222 0 20.9905 0.0378028 21.2231 0.226818C21.4169 0.37803 21.475 0.585948 21.4944 0.73716C21.475 0.850569 21.5138 1.1908 21.4944 1.45542Z" fill="white"/>
</svg>
